<svg width="45px" height="45px" viewBox="0 0 45 45" fill="none" xmlns="http://www.w3.org/2000/svg">
  <path d="M9.615 15.289v13.076c0.193 2.501 0.384 5.769 0.578 8.078C10.384 39.135 12.692 41.25 15.386 41.25h14.229c2.692 0 5.001 -2.115 5.194 -4.808 0.191 -2.306 0.382 -5.576 0.576 -8.078 0.191 -2.884 0 -8.846 0 -13.076z" fill="#030D45"/>
  <path d="M35.962 9.519h-4.809l-1.537 -2.884C28.654 4.903 26.923 3.75 24.999 3.75h-4.614C18.461 3.75 16.538 4.903 15.769 6.638L13.847 9.519H9.038c-0.769 0 -1.539 0.769 -1.539 1.537s0.769 1.539 1.537 1.539h26.925c0.769 0 1.537 -0.578 1.537 -1.537 0 -0.962 -0.769 -1.539 -1.537 -1.539m-18.848 0 0.962 -1.537c0.384 -0.769 1.153 -1.346 2.115 -1.346h4.616c0.962 0 1.731 0.384 2.115 1.344l0.962 1.539z" fill="#030D45"/>
</svg>
